<svg viewBox="0 0 640 640" fill="none" xmlns="http://www.w3.org/2000/svg">
<circle cx="320" cy="320" r="320" fill="#0055FF"/>
<path d="M96 434.801V205H195.471C216.044 205 233.771 208.392 248.654 215.177C263.536 221.743 275.026 231.263 283.124 243.738C291.222 256.213 295.271 271.095 295.271 288.385C295.271 305.456 291.222 320.229 283.124 332.704C275.026 345.179 263.536 354.809 248.654 361.593C233.771 368.159 216.044 371.442 195.471 371.442H125.546L149.183 347.477V434.801H96ZM149.183 353.386L125.546 328.108H192.517C208.931 328.108 221.187 324.606 229.285 317.603C237.383 310.599 241.431 300.86 241.431 288.385C241.431 275.691 237.383 265.843 229.285 258.839C221.187 251.836 208.931 248.334 192.517 248.334H125.546L149.183 223.056V353.386Z" fill="white"/>
<path d="M333.239 434.801V205H445.514C474.403 205 496.07 210.471 510.515 221.414C525.178 232.357 532.51 246.802 532.51 264.748C532.51 276.786 529.555 287.291 523.646 296.264C517.737 305.018 509.639 311.803 499.353 316.618C489.066 321.433 477.248 323.84 463.898 323.84L470.135 310.38C484.58 310.38 497.383 312.788 508.545 317.603C519.707 322.199 528.352 329.093 534.48 338.285C540.827 347.477 544 358.748 544 372.098C544 391.796 536.23 407.225 520.692 418.387C505.153 429.33 482.282 434.801 452.079 434.801H333.239ZM386.094 394.75H448.14C461.928 394.75 472.324 392.562 479.327 388.184C486.55 383.588 490.161 376.366 490.161 366.517C490.161 356.888 486.55 349.775 479.327 345.179C472.324 340.364 461.928 337.956 448.14 337.956H382.154V299.219H438.948C451.861 299.219 461.709 297.03 468.494 292.653C475.497 288.057 478.999 281.163 478.999 271.971C478.999 262.997 475.497 256.322 468.494 251.945C461.709 247.349 451.861 245.051 438.948 245.051H386.094V394.75Z" fill="white"/>
</svg>
